<mxfile host="65bd71144e">
    <diagram id="H2jxxa7qq9iI4Pfd04vk" name="Page-1">
        <mxGraphModel dx="1370" dy="873" grid="1" gridSize="10" guides="1" tooltips="1" connect="1" arrows="1" fold="1" page="1" pageScale="1" pageWidth="1169" pageHeight="827" math="0" shadow="0">
            <root>
                <mxCell id="0"/>
                <mxCell id="1" parent="0"/>
                <mxCell id="2" value="" style="rounded=0;whiteSpace=wrap;html=1;glass=0;sketch=0;strokeColor=#000000;fontSize=10;fontColor=#FFFF00;fillColor=none;" vertex="1" parent="1">
                    <mxGeometry x="35" y="753" width="700" height="70" as="geometry"/>
                </mxCell>
                <mxCell id="3" value="" style="rounded=1;whiteSpace=wrap;html=1;glass=0;fontColor=#ed157d;fillColor=#1992d1;dashed=1;dashPattern=1 1;strokeColor=none;arcSize=0;" vertex="1" parent="1">
                    <mxGeometry x="313.5" y="211" width="103" height="96" as="geometry"/>
                </mxCell>
                <mxCell id="4" value="" style="shape=image;verticalLabelPosition=bottom;labelBackgroundColor=default;verticalAlign=top;aspect=fixed;imageAspect=0;image=data:image/png,iVBORw0KGgoAAAANSUhEUgAAAL8AAABdCAYAAAD0ZrePAAAACXBIWXMAAAsSAAALEgHS3X78AAAMRklEQVR4nO1d35HiOBOXr/Z9eD1ehgjmyGC4DLgIlg1gatkIjovg2I8Along4yJYiOAYIoCXeYYIfKXZ9qyQW1Jb/7At/apctbPYsv783OpudUtFWZYsIyNF/JJHPSNVZPJnJIsPeegzXDBcHUaMsZFUxJgxNvDcsXvG2Fn4+/z69LB3KbD49X8vS6hsF3GE6wyds399ejg3acdwdeBtX3a0/SK28O/t69PDlvYIDcPVgRN5AjypiP0YtjmN8CJyAHhg/DA4+bcta4gr/mGMbV6fHtaUcoarAx/U761uUXOcGGMLah9gAMLP4PqtPU0j48J5wBhbq4RBH8lfYccYm5pmgp6SvwLvg9nr08OxyUPD1WHBGJszxu6C1i4eeD/M5dmgzwYv/6C3IMFSBe+DPah2RvC+Gq4OnCB/9oj4DPrh3+HqMBP/s+/eHj5dL1pQj1uCk3hjEgLw+7ajKg4V34arw7S6NwVX5+fEpT/HPagxOix6TvwK64oPqfj5Z4R7+g5lH4C78nMi/XBXCYJUyD9pQR1ujXuN7m+aFfqGN0GQCvnlRZhUoRIC08T6400QpEL+FHRZCmq2D8wG962sbVgkQ/6MH8Akf1dX910xcont+StgxbBB6uNCXBsQQiXcSX9XoQcUDDQfpE8O2JP/9ekhqv8cPBLblk3RXxoMqi2qWJoq3MD34pMPZwAn+xriihqtJtsAVuV5X3x0KMZJ8kcF71RYdv/WomrtfQeRIXgvH9rvshAVQsp/cokhsgH0+RZWo/+2LadrOn9wqdJmQJySi1sSmzVdFgCfYxNfxOvTg1M0bjZ4O4YAM42LJ6zToeBdS2axlVInz/W4NXYtcABcXJNJPOGrpcdq3zXy2075SatLgdAG4vOZ0FoNbBX5YcEFk+4TuGyl3caxan2B7IJMGtbkH64OXdrzpG/kb0OUaqN00TYihQT2rzF8z5HRhnANa7VHkfQeHX0n/7OLTthGwAKPLdoiBGaQLXZT9NXVyZOX/3p9euhVHD8kYbi4F7PhL6CPkv8ESduhV145xsPVIWj5gn7vI7whRp90Bn0kP1/F/D5cHU4Qb7JsupdPA1gvrd8Al0gCoTPo8wrvPeiV5N0Leo4+bMzlE7sUwhvu8xYmbBc7CrcLSCW25y5hycc9XiFymDufGtrWZJYKsj944ODj/jhcHeYB9f+24R+wd0Lp+emS/1bTqOP2glMwgvuMqIklXUbnvD1ckg1Xh2fLLJ4UDN/HKgZquDrsYMPatnl5fNbHOuarq67OfSY/CY/g9g2RbWXdl1Umlo9KQHabFfm7avDm6bwZvkE8jU/cdd2D1lXyZ799c6hsNJdEny7vhHfsKvltdxhLefsTVZ+5zKJtCBq0/QCPndL5YepetmgHtpfAce0jj1u1cDVl5NkD9DhcHdZw8EN0FzJ3XbsINJdklpgehLGn/Wp8ZzLNY3hSQLeewofv0g8jRNIfHWdE7niYDleHDZQlHxwn40j9ABWZfRNox8RVMLhI/ryDWiSAVF3DPjX/en6rj5ngron3LXAkLBWd1fmTBOyW8OzQdkw/TjXSMzny92GgfbehFbswxAZXV1Mjfx/WB7y2AVSqF59ldgA87im5HdvyFiY4Uot4fWtvSuR/7kNEZwjvEoQ+pCL9d1UfpkT+nMyhxwwS//uMi3gwXyrk/5TDe/UAT9Kkh/uaVuDEn4g86Dv5L7fYP76rgA9gDJu/9gncPTySN9bt66ZVJzBul1niN0N1BsBwdViCqjgNcBpMDFwEDqDu3A898fNWRuAZMpiatOnsEPZwKwPatr5kQQBC400/huy5CcwKoxaebnkSQiv2cGKOkQNFWXZpv9mMNgGJvVHtsu0DtUPtXD1fmfwZySLH9mQki0z+jGSRyZ+RLDL5M5KF0s9fFMUyoUTxeVmWNddYURQj4iZX+7Iso+ezSmO0LstyLf0+F3J3o9VRqtemLMvggXNFUYien2VZlsYgRt0iV4ij7tsKlf97TMxYu9VayWfh39hgT4X6x6yjyJ3gkbQgpMRxIsVxoWoPFJYK8U9lWaoWq6gzX3TyF0Uh1w2rg0iIKCvdCHdi9M1VX5RlSfL/q3T+lPbF0Q0OdVuMW0h+7YATP44QuMV7xXeSQ7NVak8m/w+Q+gGzFyKAk/13zWuO4u9UaegBe+m9MUJARCFFHgsV+bu8E1dToKRooPrd5GDnsiyPOlUGSBc9Z9lUr0AQhRSZ/FntUXdWa/X9jJ9wsTFq5M/G7jsy+bsBK2OXKdQe6qA/BzroYUP8+HT67ph4UqKuo9ps7Gb8hDhOjfKQXci/8W1EFUUxIBL/RfduxNOhQnBjtygK641UQX9WlVX7HXn3QNaHsZlOdx+8szoeag+/oe8FraHaCv3cxBEA76nqcYT2UfiF6vtCXSZVOHStPB7SLF4gDUvCNZKfdb2gopR3r3XvghmJUs5E8fyY+PzWUA9qOdg1Q8oT75ua+hsWucRn0DGT+x3+bwGkwerGZ+eBgTvaMYL7R4ax4u9fGMoQ75/BddSUN39/FilM1eCrQnwTX+hwCjHmhnL2lHI0z8+I9Vga6kEtB7vGOoJShI/Un8oxk+47Evtvb+COaYyoY12qhAwiXEjjXo3bldrTxNiVYimoqMWfaKYwHUzTKSnNTtMG6ikmlGmd4gqVT5m8ICrDWPqd4k6k+r/Fsu+F3Y8vIM33MIuIdbyK12nidSmKYo1sbHuCdx2Rc7YeebwQEpsk80Ws3wuUN0B2dP5cFMXGNE36vrRTtWa6IklshYQMeY11dSHOdgNEYtXKldQDrbql6E+l+qDo96Ws2kDfHjF1UeaO5l1z6T2q8kZCv5wx7kAda7MENisi6tXaZSqyuZRTNZCAUmZtujV0brArEPFrun5ZV+W0erCiP1HBo+h3tA6G9y1MYwSEltWUmu2A9A8qZBD71GQLih/51lSYz0trJ9zA2HW9SNK3YV2VpKMQ2dCfJGMXvHg2bTEau9I9Z1eniTyDEO6/minkRa6QK7sm/diXXz3W6rSTfx/Re59V9hDiLqW8W3xGZyPIZdvG/GtDDJCw4yXRbkGBuLMpYcyim3f3Tv4IK7smAzmqsesB1uQvimKGEH+mecTG2KXGu4j37WwISTR2xY/q4mFnaJkvlLyBqw9dlPyhJaYXiW1Y3IoZkGdFfiD+N+G/XgzEZ5aBW+IzOsFDvY/6LtUYiadBbjxEe8ofLaU8cU+hvejqpJL/i+XA61xfA+LhYqbla2obvmokxXdKATZhzDBVXxGfqO41IijSn2hdkft8kL82Rsh7fGR32QgEUSu4Ij9Vam5cdDUFfKk8TqEZMH1T0DiMGYgvvvMCLj6KxLoaNML91IQS+T7bcTWtJ4RIcBHtB/PWhIjd1FTtoeqbTRHV2NWoTkEiOUHybQW9mEz8iMauy9iapPBVG1w5ZJmlJqtmP8jfwNgNFcEY09jVqU7eyY8Qn4Gr0kZ3D2ns2towTePpfST/1Ijc8Jm3OnxAftBhZBnWgG4NoqiYEp6M3dg5uxvpo/zUMBpWVMWo7xXb0QZj1zdqRG5Yz7d+bEr+e4/H4b/hBsZutJxd8OWLuukXQ2yTqU5UNckoialGccP6xTrXy9XYvTqTK6iL0IfU92jsqsjgNWcXNm6SffkxTj2UF3uoxq4t+SnBc+JH+wgfngucjV0mkD+kj99Eltgru8FzdsGXL24oZVrEokJbx6IoFhIx2mDsMkSl0q4i8/5TqdcejN2rtrokXFAuU8z7hlgOmniiiPNQXcr4jwZBfdqgLySGXxu8RYhHketVi5uBxRusH5XxR9L9VnFKSKCacoyQyNFavD+0Q4x3qnFH7l9iPdGI2A+JrewGNXZhOsdUm01RFMaCy7LE6sAH7k/h74/QXlXsu4g2Gbtc2v9f+Ptv2Et0A2oR1g4+Aywkl7CrsXtVRywm2ueljHm/QRizLqadksEWMpdANytRM8LkqFxqGLMxSpQwK2nHqGE7qhkTi8sX26jVKoRn0Lb+Elryt8zYDb1BlYvjQNlG8BD9oTkk+gRhJ200dt8B7fjd4BV6AXfwWGGHeDF2334LfYiYjvxStr8O2p0KwAiitIG6e0Ho9mAw7sbAfg7mWEj0OFZ1ktuhUkOo9xHqIvY7qf7CsyOoQ1UP7c4QwnNXH5xplVzX1nwgXUayyCezZCSLTP6MNMEY+w9rg2ErYk0POwAAAABJRU5ErkJggg==;" vertex="1" parent="1">
                    <mxGeometry x="10" y="16" width="102.69" height="50" as="geometry"/>
                </mxCell>
                <mxCell id="5" value="&lt;b style=&quot;font-size: 68px;&quot;&gt;&lt;font style=&quot;font-size: 68px;&quot;&gt;ASSEMBLY MODELS&lt;/font&gt;&lt;/b&gt;" style="rounded=0;whiteSpace=wrap;html=1;align=left;verticalAlign=middle;fillColor=none;strokeColor=none;fontColor=default;fontSize=60;" vertex="1" parent="1">
                    <mxGeometry x="132" y="21" width="953" height="40" as="geometry"/>
                </mxCell>
                <mxCell id="6" value="&lt;div style=&quot;font-size: 10px;&quot;&gt;&lt;b style=&quot;border-color: var(--border-color); background-color: initial;&quot;&gt;package&lt;/b&gt;&lt;br&gt;&lt;/div&gt;" style="rounded=0;whiteSpace=wrap;html=1;align=center;verticalAlign=middle;fillColor=#E6E6E6;strokeColor=none;fontColor=#000000;fontSize=10;" vertex="1" parent="1">
                    <mxGeometry x="785" y="122" width="81" height="23" as="geometry"/>
                </mxCell>
                <mxCell id="7" value="&lt;span style=&quot;font-weight: bold; font-size: 10px;&quot;&gt;&quot;Description&quot;&lt;br style=&quot;font-size: 10px;&quot;&gt;&lt;/span&gt;" style="rounded=0;whiteSpace=wrap;html=1;align=left;verticalAlign=top;fillColor=#E6E6E6;strokeColor=none;fontColor=#000000;fontSize=10;" vertex="1" parent="1">
                    <mxGeometry x="872" y="121" width="289" height="38" as="geometry"/>
                </mxCell>
                <mxCell id="8" value="&lt;div style=&quot;font-size: 10px;&quot;&gt;&lt;b style=&quot;background-color: initial; font-size: 10px;&quot;&gt;graph vertex&lt;/b&gt;&lt;/div&gt;&lt;div style=&quot;font-size: 10px;&quot;&gt;&lt;b style=&quot;background-color: initial; font-size: 10px;&quot;&gt;+&lt;/b&gt;&lt;/div&gt;&lt;div style=&quot;font-size: 10px;&quot;&gt;&lt;b&gt;&lt;font color=&quot;#ff0080&quot;&gt;object&lt;/font&gt;&lt;/b&gt;&lt;/div&gt;" style="rounded=0;whiteSpace=wrap;html=1;align=center;verticalAlign=middle;fillColor=#E6E6E6;strokeColor=none;fontColor=#000000;fontSize=10;" vertex="1" parent="1">
                    <mxGeometry x="785" y="166" width="81" height="42" as="geometry"/>
                </mxCell>
                <mxCell id="9" value="&lt;div style=&quot;font-size: 10px;&quot;&gt;&lt;b style=&quot;background-color: initial; font-size: 10px;&quot;&gt;graph edge&lt;/b&gt;&lt;/div&gt;&lt;div style=&quot;font-size: 10px;&quot;&gt;&lt;b&gt;+&lt;/b&gt;&lt;/div&gt;&lt;div style=&quot;font-size: 10px;&quot;&gt;&lt;font color=&quot;#ff0080&quot;&gt;&lt;b&gt;object&lt;/b&gt;&lt;/font&gt;&lt;/div&gt;" style="rounded=0;whiteSpace=wrap;html=1;align=center;verticalAlign=middle;fillColor=#E6E6E6;strokeColor=none;fontColor=#000000;fontSize=10;" vertex="1" parent="1">
                    <mxGeometry x="785" y="420" width="81" height="53" as="geometry"/>
                </mxCell>
                <mxCell id="10" value="&lt;span style=&quot;border-color: var(--border-color); font-weight: 700;&quot;&gt;properties:&lt;br&gt;&lt;/span&gt;&lt;span style=&quot;border-color: var(--border-color); font-weight: bold;&quot;&gt;&lt;span style=&quot;white-space: pre;&quot;&gt;&#9;&lt;/span&gt;int index&lt;br&gt;&lt;span style=&quot;white-space: pre;&quot;&gt;&#9;&lt;/span&gt;str name&lt;br&gt;&lt;span style=&quot;white-space: pre;&quot;&gt;&#9;&lt;/span&gt;Frame frame_local&lt;br&gt;&lt;span style=&quot;white-space: pre;&quot;&gt;&#9;&lt;/span&gt;Frame frame_global&lt;br&gt;&lt;br style=&quot;border-color: var(--border-color);&quot;&gt;&lt;/span&gt;&lt;span style=&quot;border-color: var(--border-color); font-weight: bold;&quot;&gt;&lt;span style=&quot;white-space: pre;&quot;&gt;&#9;&lt;/span&gt;object:&lt;br style=&quot;border-color: var(--border-color);&quot;&gt;&lt;/span&gt;&lt;span style=&quot;border-color: var(--border-color); font-weight: bold;&quot;&gt;&lt;span style=&quot;border-color: var(--border-color);&quot;&gt;&lt;/span&gt;&lt;span style=&quot;border-color: var(--border-color);&quot;&gt;&lt;/span&gt;&lt;span style=&quot;border-color: var(--border-color);&quot;&gt;&#9;&lt;span style=&quot;border-color: var(--border-color);&quot;&gt;&#9;&lt;/span&gt;&lt;/span&gt;&lt;span style=&quot;white-space: pre;&quot;&gt;&#9;&lt;span style=&quot;white-space: pre;&quot;&gt;&#9;&lt;/span&gt;&lt;/span&gt;&lt;font color=&quot;#ff53e0&quot;&gt;block (con / convex)&lt;/font&gt;,&lt;br style=&quot;border-color: var(--border-color);&quot;&gt;&lt;span style=&quot;border-color: var(--border-color);&quot;&gt;&lt;span style=&quot;border-color: var(--border-color);&quot;&gt;&lt;/span&gt;&lt;/span&gt;&lt;span style=&quot;border-color: var(--border-color);&quot;&gt;&lt;/span&gt;&lt;span style=&quot;border-color: var(--border-color);&quot;&gt;&lt;/span&gt;&lt;span style=&quot;border-color: var(--border-color);&quot;&gt;&#9;&lt;/span&gt;&lt;span style=&quot;border-color: var(--border-color);&quot;&gt;&#9;&lt;/span&gt;&lt;span style=&quot;white-space: pre;&quot;&gt;&#9;&lt;span style=&quot;white-space: pre;&quot;&gt;&#9;&lt;/span&gt;&lt;/span&gt;&lt;font color=&quot;#cc0000&quot;&gt;plate (flat, curved)&lt;/font&gt;&lt;br style=&quot;border-color: var(--border-color);&quot;&gt;&lt;span style=&quot;border-color: var(--border-color);&quot;&gt;&lt;/span&gt;&lt;span style=&quot;border-color: var(--border-color);&quot;&gt;&#9;&lt;/span&gt;&lt;span style=&quot;border-color: var(--border-color);&quot;&gt;&#9;&lt;/span&gt;&lt;span style=&quot;white-space: pre;&quot;&gt;&#9;&lt;span style=&quot;white-space: pre;&quot;&gt;&#9;&lt;/span&gt;&lt;/span&gt;&lt;font color=&quot;#0000ff&quot;&gt;beam (straight, curved)&amp;nbsp;&lt;/font&gt;&lt;span style=&quot;border-color: var(--border-color);&quot;&gt;&lt;/span&gt;&lt;br style=&quot;border-color: var(--border-color);&quot;&gt;&lt;span style=&quot;border-color: var(--border-color);&quot;&gt;&lt;span style=&quot;border-color: var(--border-color);&quot;&gt;&lt;/span&gt;&lt;/span&gt;&lt;span style=&quot;border-color: var(--border-color);&quot;&gt;&lt;/span&gt;&lt;span style=&quot;border-color: var(--border-color);&quot;&gt;&lt;/span&gt;&lt;span style=&quot;border-color: var(--border-color);&quot;&gt;&#9;&lt;/span&gt;&lt;span style=&quot;border-color: var(--border-color);&quot;&gt;&#9;&lt;/span&gt;&lt;span style=&quot;white-space: pre;&quot;&gt;&#9;&lt;span style=&quot;white-space: pre;&quot;&gt;&#9;&lt;/span&gt;&lt;/span&gt;&lt;font color=&quot;#7f00ff&quot;&gt;node&lt;br&gt;&lt;/font&gt;&lt;span style=&quot;white-space: pre;&quot;&gt;&#9;&lt;span style=&quot;white-space: pre;&quot;&gt;&#9;&lt;/span&gt;&lt;/span&gt;&lt;font color=&quot;#666666&quot;&gt;(mixture of properties can exist)&lt;br&gt;&lt;span style=&quot;white-space: pre;&quot;&gt;&#9;&lt;span style=&quot;white-space: pre;&quot;&gt;&#9;&lt;/span&gt;&lt;/span&gt;(parts can be created once or changed on the fly)&lt;br&gt;&lt;span style=&quot;white-space: pre;&quot;&gt;&#9;&lt;span style=&quot;white-space: pre;&quot;&gt;&#9;&lt;/span&gt;&lt;/span&gt;(part includes both fab and structure properties)&lt;/font&gt;&lt;br style=&quot;border-color: var(--border-color);&quot;&gt;&lt;br style=&quot;border-color: var(--border-color);&quot;&gt;&lt;/span&gt;&lt;span style=&quot;border-color: var(--border-color); font-weight: bold;&quot;&gt;methods:&lt;br style=&quot;border-color: var(--border-color);&quot;&gt;&lt;span style=&quot;border-color: var(--border-color);&quot;&gt;&#9;&lt;/span&gt;&lt;span style=&quot;white-space: pre;&quot;&gt;&#9;&lt;/span&gt;transform()&lt;br style=&quot;border-color: var(--border-color);&quot;&gt;&lt;span style=&quot;border-color: var(--border-color);&quot;&gt;&#9;&lt;/span&gt;&lt;span style=&quot;white-space: pre;&quot;&gt;&#9;&lt;/span&gt;copy() &lt;font color=&quot;#666666&quot;&gt;(derived from Data class)&lt;/font&gt;&lt;br&gt;&lt;span style=&quot;white-space: pre;&quot;&gt;&#9;&lt;/span&gt;str()&lt;font color=&quot;#666666&quot;&gt; (derived from Fata class)&lt;/font&gt;&lt;br style=&quot;border-color: var(--border-color);&quot;&gt;&lt;/span&gt;&lt;span style=&quot;border-color: var(--border-color); font-weight: bold;&quot;&gt;&lt;font style=&quot;border-color: var(--border-color);&quot; color=&quot;#ff0080&quot;&gt;&lt;br style=&quot;border-color: var(--border-color);&quot;&gt;&lt;/font&gt;&lt;/span&gt;&lt;span style=&quot;border-color: var(--border-color); font-weight: bold;&quot;&gt;&lt;br style=&quot;border-color: var(--border-color);&quot;&gt;&lt;/span&gt;" style="rounded=0;whiteSpace=wrap;html=1;align=left;verticalAlign=top;fillColor=#E6E6E6;strokeColor=none;fontColor=#000000;fontSize=10;" vertex="1" parent="1">
                    <mxGeometry x="872" y="166" width="289" height="248" as="geometry"/>
                </mxCell>
                <mxCell id="11" value="&lt;span style=&quot;border-color: var(--border-color); font-weight: 700;&quot;&gt;properties:&lt;br&gt;&lt;/span&gt;&lt;span style=&quot;border-color: var(--border-color); font-weight: bold;&quot;&gt;&lt;span style=&quot;white-space: pre;&quot;&gt;&#9;&lt;/span&gt;int index&lt;br&gt;&lt;span style=&quot;white-space: pre;&quot;&gt;&#9;&lt;/span&gt;str name&lt;br&gt;&lt;span style=&quot;white-space: pre;&quot;&gt;&#9;&lt;/span&gt;str type &lt;font color=&quot;#666666&quot;&gt;(topology information, how things are joined)&lt;/font&gt;&lt;br&gt;&lt;span style=&quot;white-space: pre;&quot;&gt;&#9;&lt;/span&gt;Frame frame&lt;br&gt;&lt;span style=&quot;white-space: pre;&quot;&gt;&#9;&lt;/span&gt;Frame frame_global&lt;br&gt;&lt;br style=&quot;border-color: var(--border-color);&quot;&gt;&lt;/span&gt;&lt;span style=&quot;border-color: var(--border-color); font-weight: bold;&quot;&gt;&lt;span style=&quot;white-space: pre;&quot;&gt;&#9;&lt;/span&gt;object:&lt;/span&gt;&lt;span style=&quot;border-color: var(--border-color); font-weight: bold;&quot;&gt;&lt;span style=&quot;white-space: pre;&quot;&gt;&lt;br&gt;&lt;/span&gt;&lt;span style=&quot;white-space: pre;&quot;&gt;&#9;&lt;/span&gt;&lt;span style=&quot;white-space: pre;&quot;&gt;&#9;&lt;/span&gt;fabrication tool-path&lt;br style=&quot;border-color: var(--border-color);&quot;&gt;&lt;span style=&quot;border-color: var(--border-color);&quot;&gt;&lt;span style=&quot;border-color: var(--border-color);&quot;&gt;&lt;/span&gt;&lt;/span&gt;&lt;span style=&quot;border-color: var(--border-color);&quot;&gt;&lt;/span&gt;&lt;span style=&quot;border-color: var(--border-color);&quot;&gt;&lt;/span&gt;&lt;span style=&quot;border-color: var(--border-color);&quot;&gt;&#9;&lt;/span&gt;&lt;span style=&quot;border-color: var(--border-color);&quot;&gt;&#9;&lt;/span&gt;&lt;span style=&quot;white-space: pre;&quot;&gt;&#9;&lt;span style=&quot;white-space: pre;&quot;&gt;&#9;&lt;/span&gt;&lt;/span&gt;boolean difference/union geometry&lt;br style=&quot;border-color: var(--border-color);&quot;&gt;&lt;span style=&quot;border-color: var(--border-color);&quot;&gt;&lt;/span&gt;&lt;span style=&quot;border-color: var(--border-color);&quot;&gt;&#9;&lt;/span&gt;&lt;span style=&quot;border-color: var(--border-color);&quot;&gt;&#9;&lt;/span&gt;&lt;span style=&quot;white-space: pre;&quot;&gt;&#9;&lt;span style=&quot;white-space: pre;&quot;&gt;&#9;&lt;/span&gt;&lt;/span&gt;independent geometry as a feature / interface&lt;br style=&quot;border-color: var(--border-color);&quot;&gt;&lt;span style=&quot;border-color: var(--border-color);&quot;&gt;&lt;span style=&quot;border-color: var(--border-color);&quot;&gt;&lt;/span&gt;&lt;/span&gt;&lt;span style=&quot;border-color: var(--border-color);&quot;&gt;&lt;/span&gt;&lt;span style=&quot;border-color: var(--border-color);&quot;&gt;&lt;/span&gt;&lt;span style=&quot;border-color: var(--border-color);&quot;&gt;&#9;&lt;/span&gt;&lt;span style=&quot;border-color: var(--border-color);&quot;&gt;&#9;&lt;/span&gt;&lt;span style=&quot;white-space: pre;&quot;&gt;&#9;&lt;span style=&quot;white-space: pre;&quot;&gt;&#9;&lt;/span&gt;structural properties&lt;/span&gt;&lt;br style=&quot;border-color: var(--border-color);&quot;&gt;&lt;br style=&quot;border-color: var(--border-color);&quot;&gt;&lt;/span&gt;&lt;span style=&quot;border-color: var(--border-color); font-weight: bold;&quot;&gt;methods:&lt;br style=&quot;border-color: var(--border-color);&quot;&gt;&lt;span style=&quot;border-color: var(--border-color);&quot;&gt;&#9;&lt;/span&gt;&lt;span style=&quot;white-space: pre;&quot;&gt;&#9;&lt;/span&gt;transform()&lt;br&gt;&lt;span style=&quot;white-space: pre;&quot;&gt;&#9;&lt;/span&gt;assign_geometry_to parts()&lt;br style=&quot;border-color: var(--border-color);&quot;&gt;&lt;span style=&quot;border-color: var(--border-color);&quot;&gt;&#9;&lt;/span&gt;&lt;span style=&quot;white-space: pre;&quot;&gt;&#9;&lt;/span&gt;copy() &lt;font color=&quot;#666666&quot;&gt;(derived from Data class)&lt;/font&gt;&lt;br&gt;&lt;span style=&quot;white-space: pre;&quot;&gt;&#9;&lt;/span&gt;str()&lt;font color=&quot;#666666&quot;&gt; (derived from Fata class)&lt;/font&gt;&lt;br style=&quot;border-color: var(--border-color);&quot;&gt;&lt;/span&gt;&lt;span style=&quot;border-color: var(--border-color); font-weight: bold;&quot;&gt;&lt;font style=&quot;border-color: var(--border-color);&quot; color=&quot;#ff0080&quot;&gt;&lt;br style=&quot;border-color: var(--border-color);&quot;&gt;&lt;/font&gt;&lt;/span&gt;&lt;span style=&quot;border-color: var(--border-color); font-weight: bold;&quot;&gt;&lt;br style=&quot;border-color: var(--border-color);&quot;&gt;&lt;/span&gt;" style="rounded=0;whiteSpace=wrap;html=1;align=left;verticalAlign=top;fillColor=#E6E6E6;strokeColor=none;fontColor=#000000;fontSize=10;" vertex="1" parent="1">
                    <mxGeometry x="872" y="420" width="289" height="231" as="geometry"/>
                </mxCell>
                <mxCell id="12" value="&lt;div style=&quot;font-size: 10px;&quot;&gt;&lt;b style=&quot;background-color: initial; font-size: 10px;&quot;&gt;un / rolling&lt;/b&gt;&lt;/div&gt;" style="rounded=0;whiteSpace=wrap;html=1;align=center;verticalAlign=middle;fillColor=#E6E6E6;strokeColor=none;fontColor=#000000;fontSize=10;" vertex="1" parent="1">
                    <mxGeometry x="785" y="767" width="81" height="23" as="geometry"/>
                </mxCell>
                <mxCell id="13" value="&lt;span style=&quot;font-weight: bold; font-size: 10px;&quot;&gt;&lt;font color=&quot;#ff0080&quot;&gt;transform()&lt;br&gt;&lt;/font&gt;transformed()&lt;br style=&quot;font-size: 10px;&quot;&gt;&lt;/span&gt;" style="rounded=0;whiteSpace=wrap;html=1;align=left;verticalAlign=middle;fillColor=#E6E6E6;strokeColor=none;fontColor=#000000;fontSize=10;" vertex="1" parent="1">
                    <mxGeometry x="870" y="766" width="289" height="30" as="geometry"/>
                </mxCell>
                <mxCell id="14" value="&lt;div style=&quot;font-size: 10px;&quot;&gt;&lt;b&gt;connectivity&amp;nbsp;&lt;/b&gt;&lt;/div&gt;&lt;div style=&quot;font-size: 10px;&quot;&gt;&lt;b&gt;detection&lt;/b&gt;&lt;/div&gt;&lt;div style=&quot;font-size: 10px;&quot;&gt;&lt;b&gt;method&lt;/b&gt;&lt;/div&gt;&lt;div style=&quot;font-size: 10px;&quot;&gt;&lt;b&gt;+&lt;/b&gt;&lt;/div&gt;&lt;div style=&quot;font-size: 10px;&quot;&gt;&lt;b&gt;performance&lt;/b&gt;&lt;/div&gt;" style="rounded=0;whiteSpace=wrap;html=1;align=center;verticalAlign=middle;fillColor=#E6E6E6;strokeColor=none;fontColor=#000000;fontSize=10;" vertex="1" parent="1">
                    <mxGeometry x="785" y="657" width="81" height="64" as="geometry"/>
                </mxCell>
                <mxCell id="15" value="&lt;b style=&quot;font-size: 10px;&quot;&gt;fast-distance queries:&lt;br style=&quot;font-size: 10px;&quot;&gt;&lt;span style=&quot;font-size: 10px;&quot;&gt;&#9;&lt;/span&gt;&lt;span style=&quot;&quot;&gt;&#9;&lt;/span&gt;&lt;span style=&quot;white-space: pre;&quot;&gt;&#9;&lt;/span&gt;property:&lt;br style=&quot;font-size: 10px;&quot;&gt;&lt;/b&gt;&lt;b style=&quot;border-color: var(--border-color);&quot;&gt;&lt;span style=&quot;white-space: pre;&quot;&gt;&#9;&lt;span style=&quot;white-space: pre;&quot;&gt;&#9;&lt;/span&gt;&lt;/span&gt;points, lines,&amp;nbsp;&lt;span style=&quot;border-color: var(--border-color);&quot;&gt;&lt;/span&gt;curves, meshes, breps&lt;/b&gt;&lt;b style=&quot;font-size: 10px;&quot;&gt;&lt;br style=&quot;font-size: 10px;&quot;&gt;&lt;span style=&quot;&quot;&gt;&#9;&lt;/span&gt;&lt;span style=&quot;white-space: pre;&quot;&gt;&#9;&lt;/span&gt;methods:&lt;br style=&quot;font-size: 10px;&quot;&gt;&lt;/b&gt;&lt;span style=&quot;font-weight: bold; font-size: 10px;&quot;&gt;&lt;span style=&quot;font-size: 10px;&quot;&gt;&#9;&lt;/span&gt;&lt;span style=&quot;font-size: 10px;&quot;&gt;&#9;&lt;/span&gt;&lt;span style=&quot;&quot;&gt;&#9;&lt;span style=&quot;&quot;&gt;&#9;&lt;/span&gt;&lt;/span&gt;&lt;/span&gt;&lt;span style=&quot;border-color: var(--border-color); font-weight: bold;&quot;&gt;&lt;span style=&quot;white-space: pre;&quot;&gt;&#9;&lt;span style=&quot;white-space: pre;&quot;&gt;&#9;&lt;/span&gt;&lt;/span&gt;oobb, aabb collide,&amp;nbsp;&amp;nbsp;&lt;/span&gt;&lt;span style=&quot;border-color: var(--border-color); font-weight: bold;&quot;&gt;rtree, kdtree,&amp;nbsp;octree,&amp;nbsp;&lt;/span&gt;&lt;span style=&quot;border-color: var(--border-color); font-weight: bold;&quot;&gt;fspw&lt;/span&gt;&lt;span style=&quot;font-weight: bold; font-size: 10px;&quot;&gt;&lt;br&gt;&lt;br&gt;&lt;/span&gt;&lt;span style=&quot;font-weight: bold; font-size: 10px;&quot;&gt;cache:&lt;br&gt;&lt;span style=&quot;&quot;&gt;&#9;&lt;/span&gt;&lt;span style=&quot;&quot;&gt;&#9;&lt;/span&gt;a container in memory that gets updated&amp;nbsp;during runtime&lt;/span&gt;&lt;span style=&quot;font-weight: bold; font-size: 10px;&quot;&gt;&lt;br style=&quot;font-size: 10px;&quot;&gt;&lt;/span&gt;" style="rounded=0;whiteSpace=wrap;html=1;align=left;verticalAlign=middle;fillColor=#E6E6E6;strokeColor=none;fontColor=#000000;fontSize=10;" vertex="1" parent="1">
                    <mxGeometry x="872" y="657" width="289" height="106" as="geometry"/>
                </mxCell>
                <mxCell id="16" value="&lt;b style=&quot;font-size: 10px;&quot;&gt;&lt;font style=&quot;font-size: 10px;&quot;&gt;assembly data_structure&lt;br&gt;&lt;/font&gt;&lt;/b&gt;" style="rounded=0;whiteSpace=wrap;html=1;align=center;verticalAlign=middle;fillColor=#000000;strokeColor=none;fontColor=#FFFFFF;fontSize=20;" vertex="1" parent="1">
                    <mxGeometry x="785" y="86" width="378" height="29" as="geometry"/>
                </mxCell>
                <mxCell id="17" value="&lt;div style=&quot;font-size: 10px;&quot;&gt;&lt;b style=&quot;background-color: initial; font-size: 10px;&quot;&gt;viewer&lt;/b&gt;&lt;/div&gt;" style="rounded=0;whiteSpace=wrap;html=1;align=center;verticalAlign=middle;fillColor=#E6E6E6;strokeColor=none;fontColor=#000000;fontSize=10;" vertex="1" parent="1">
                    <mxGeometry x="785" y="801" width="81" height="23" as="geometry"/>
                </mxCell>
                <mxCell id="18" value="&lt;span style=&quot;font-weight: bold; font-size: 10px;&quot;&gt;assembly_viewer()&lt;br style=&quot;font-size: 10px;&quot;&gt;&lt;/span&gt;" style="rounded=0;whiteSpace=wrap;html=1;align=left;verticalAlign=middle;fillColor=#E6E6E6;strokeColor=none;fontColor=#000000;fontSize=10;" vertex="1" parent="1">
                    <mxGeometry x="870" y="801" width="289" height="23" as="geometry"/>
                </mxCell>
                <mxCell id="19" style="edgeStyle=none;curved=1;html=1;exitX=0.5;exitY=1;exitDx=0;exitDy=0;" edge="1" parent="1" source="20" target="31">
                    <mxGeometry relative="1" as="geometry"/>
                </mxCell>
                <mxCell id="20" value="&lt;div style=&quot;font-size: 10px;&quot;&gt;&lt;b style=&quot;background-color: initial; font-size: 10px;&quot;&gt;graph vertex&lt;/b&gt;&lt;/div&gt;&lt;div style=&quot;font-size: 10px;&quot;&gt;&lt;b style=&quot;background-color: initial; font-size: 10px;&quot;&gt;+&lt;/b&gt;&lt;/div&gt;&lt;div style=&quot;font-size: 10px;&quot;&gt;&lt;b&gt;&lt;font color=&quot;#ffffff&quot;&gt;structural&lt;/font&gt;&lt;/b&gt;&lt;/div&gt;&lt;div style=&quot;font-size: 10px;&quot;&gt;&lt;b&gt;&lt;font color=&quot;#ffffff&quot;&gt;element ( Part )&lt;/font&gt;&lt;/b&gt;&lt;/div&gt;" style="rounded=0;whiteSpace=wrap;html=1;align=center;verticalAlign=middle;fillColor=none;strokeColor=none;fontColor=#000000;fontSize=10;" vertex="1" parent="1">
                    <mxGeometry x="325" y="217.5" width="81" height="53" as="geometry"/>
                </mxCell>
                <mxCell id="21" value="&lt;div style=&quot;font-size: 10px;&quot;&gt;&lt;b style=&quot;background-color: initial; font-size: 10px;&quot;&gt;graph edge&lt;/b&gt;&lt;/div&gt;&lt;div style=&quot;font-size: 10px;&quot;&gt;&lt;b&gt;+&lt;/b&gt;&lt;/div&gt;&lt;div style=&quot;font-size: 10px;&quot;&gt;&lt;b style=&quot;&quot;&gt;&lt;font color=&quot;#ffffff&quot;&gt;connection&lt;/font&gt;&lt;/b&gt;&lt;/div&gt;&lt;div style=&quot;font-size: 10px;&quot;&gt;&lt;b style=&quot;&quot;&gt;&lt;font color=&quot;#ffffff&quot;&gt;object&lt;/font&gt;&lt;/b&gt;&lt;/div&gt;" style="rounded=0;whiteSpace=wrap;html=1;align=center;verticalAlign=middle;fillColor=#ed157d;strokeColor=none;fontColor=#000000;fontSize=10;" vertex="1" parent="1">
                    <mxGeometry x="324.5" y="409" width="81" height="55" as="geometry"/>
                </mxCell>
                <mxCell id="22" value="&lt;div style=&quot;font-size: 10px;&quot;&gt;&lt;b&gt;connectivity&amp;nbsp;&lt;/b&gt;&lt;/div&gt;&lt;div style=&quot;font-size: 10px;&quot;&gt;&lt;b&gt;detection&lt;/b&gt;&lt;/div&gt;&lt;div style=&quot;font-size: 10px;&quot;&gt;&lt;b&gt;method&lt;/b&gt;&lt;/div&gt;&lt;div style=&quot;font-size: 10px;&quot;&gt;&lt;b&gt;using fast&lt;/b&gt;&lt;/div&gt;&lt;div style=&quot;font-size: 10px;&quot;&gt;&lt;b&gt;distance search&lt;/b&gt;&lt;/div&gt;" style="rounded=0;whiteSpace=wrap;html=1;align=center;verticalAlign=middle;fillColor=#E6E6E6;strokeColor=none;fontColor=#000000;fontSize=10;" vertex="1" parent="1">
                    <mxGeometry x="223" y="639" width="81" height="64" as="geometry"/>
                </mxCell>
                <mxCell id="23" value="&lt;div style=&quot;font-size: 10px;&quot;&gt;&lt;b style=&quot;background-color: initial; font-size: 10px;&quot;&gt;un / rolling&lt;/b&gt;&lt;/div&gt;" style="rounded=0;whiteSpace=wrap;html=1;align=center;verticalAlign=middle;fillColor=#E6E6E6;strokeColor=none;fontColor=#000000;fontSize=10;" vertex="1" parent="1">
                    <mxGeometry x="325" y="639" width="81" height="23" as="geometry"/>
                </mxCell>
                <mxCell id="24" value="&lt;div style=&quot;font-size: 10px;&quot;&gt;&lt;b style=&quot;background-color: initial; font-size: 10px;&quot;&gt;viewer&lt;/b&gt;&lt;/div&gt;&lt;div style=&quot;font-size: 10px;&quot;&gt;&lt;b style=&quot;background-color: initial; font-size: 10px;&quot;&gt;( Rhino,&lt;/b&gt;&lt;/div&gt;&lt;div style=&quot;font-size: 10px;&quot;&gt;&lt;b style=&quot;background-color: initial; font-size: 10px;&quot;&gt;Viewer,&lt;/b&gt;&lt;/div&gt;&lt;div style=&quot;font-size: 10px;&quot;&gt;&lt;b style=&quot;background-color: initial; font-size: 10px;&quot;&gt;Blender )&lt;/b&gt;&lt;/div&gt;" style="rounded=0;whiteSpace=wrap;html=1;align=center;verticalAlign=middle;fillColor=#E6E6E6;strokeColor=none;fontColor=#000000;fontSize=10;" vertex="1" parent="1">
                    <mxGeometry x="428" y="639" width="81" height="58" as="geometry"/>
                </mxCell>
                <mxCell id="25" value="&lt;b style=&quot;font-size: 10px;&quot;&gt;&lt;font style=&quot;font-size: 10px;&quot;&gt;assembly data_structure ( also often called &quot;Model&quot; )&lt;br&gt;&lt;/font&gt;&lt;/b&gt;" style="rounded=0;whiteSpace=wrap;html=1;align=center;verticalAlign=middle;fillColor=#000000;strokeColor=none;fontColor=#FFFFFF;fontSize=20;" vertex="1" parent="1">
                    <mxGeometry x="15" y="152" width="730" height="29" as="geometry"/>
                </mxCell>
                <mxCell id="26" style="edgeStyle=none;curved=1;html=1;exitX=0;exitY=1;exitDx=0;exitDy=0;entryX=0.5;entryY=0;entryDx=0;entryDy=0;" edge="1" parent="1" source="3" target="32">
                    <mxGeometry relative="1" as="geometry">
                        <mxPoint x="219.5" y="327" as="targetPoint"/>
                    </mxGeometry>
                </mxCell>
                <mxCell id="27" style="edgeStyle=none;curved=1;html=1;entryX=0.5;entryY=0;entryDx=0;entryDy=0;exitX=0.221;exitY=1.058;exitDx=0;exitDy=0;exitPerimeter=0;" edge="1" parent="1" source="31" target="33">
                    <mxGeometry relative="1" as="geometry">
                        <mxPoint x="349" y="303" as="sourcePoint"/>
                    </mxGeometry>
                </mxCell>
                <mxCell id="28" style="edgeStyle=none;curved=1;html=1;entryX=0.5;entryY=0;entryDx=0;entryDy=0;exitX=0.5;exitY=1;exitDx=0;exitDy=0;" edge="1" parent="1" source="31" target="34">
                    <mxGeometry relative="1" as="geometry">
                        <mxPoint x="386" y="306" as="sourcePoint"/>
                    </mxGeometry>
                </mxCell>
                <mxCell id="29" style="edgeStyle=none;curved=1;html=1;exitX=0.81;exitY=1.023;exitDx=0;exitDy=0;entryX=0.5;entryY=0;entryDx=0;entryDy=0;exitPerimeter=0;" edge="1" parent="1" source="31" target="35">
                    <mxGeometry relative="1" as="geometry"/>
                </mxCell>
                <mxCell id="30" style="edgeStyle=none;curved=1;html=1;entryX=0.5;entryY=0;entryDx=0;entryDy=0;fontColor=#ed157d;exitX=1;exitY=1;exitDx=0;exitDy=0;" edge="1" parent="1" source="3" target="38">
                    <mxGeometry relative="1" as="geometry"/>
                </mxCell>
                <mxCell id="31" value="&lt;div style=&quot;font-size: 10px;&quot;&gt;&lt;b style=&quot;background-color: initial; font-size: 10px;&quot;&gt;Part&lt;/b&gt;&lt;/div&gt;" style="rounded=0;whiteSpace=wrap;html=1;align=center;verticalAlign=middle;fillColor=none;strokeColor=none;fontColor=#000000;fontSize=10;" vertex="1" parent="1">
                    <mxGeometry x="325" y="283" width="81" height="23" as="geometry"/>
                </mxCell>
                <mxCell id="32" value="&lt;div style=&quot;font-size: 10px;&quot;&gt;&lt;b style=&quot;background-color: initial; font-size: 10px;&quot;&gt;Block&lt;/b&gt;&lt;/div&gt;&lt;div style=&quot;font-size: 10px;&quot;&gt;&lt;b style=&quot;background-color: initial; font-size: 10px;&quot;&gt;(solid&amp;nbsp;&lt;/b&gt;&lt;b style=&quot;background-color: initial;&quot;&gt;mesh)&lt;/b&gt;&lt;/div&gt;" style="rounded=0;whiteSpace=wrap;html=1;align=center;verticalAlign=middle;fillColor=#E6E6E6;strokeColor=none;fontColor=#000000;fontSize=10;" vertex="1" parent="1">
                    <mxGeometry x="197" y="347" width="64.5" height="39" as="geometry"/>
                </mxCell>
                <mxCell id="33" value="&lt;div style=&quot;font-size: 10px;&quot;&gt;&lt;b style=&quot;background-color: initial; font-size: 10px;&quot;&gt;Beam&lt;/b&gt;&lt;/div&gt;&lt;div style=&quot;font-size: 10px;&quot;&gt;&lt;b style=&quot;background-color: initial; font-size: 10px;&quot;&gt;(curves or brep)&lt;/b&gt;&lt;/div&gt;" style="rounded=0;whiteSpace=wrap;html=1;align=center;verticalAlign=middle;fillColor=#E6E6E6;strokeColor=none;fontColor=#000000;fontSize=10;" vertex="1" parent="1">
                    <mxGeometry x="264.5" y="347" width="64" height="39" as="geometry"/>
                </mxCell>
                <mxCell id="34" value="&lt;div style=&quot;font-size: 10px;&quot;&gt;&lt;b style=&quot;background-color: initial; font-size: 10px;&quot;&gt;Plate&lt;/b&gt;&lt;/div&gt;&lt;div style=&quot;font-size: 10px;&quot;&gt;&lt;b style=&quot;background-color: initial; font-size: 10px;&quot;&gt;(closed polygons)&lt;/b&gt;&lt;/div&gt;" style="rounded=0;whiteSpace=wrap;html=1;align=center;verticalAlign=middle;fillColor=#E6E6E6;strokeColor=none;fontColor=#000000;fontSize=10;glass=0;sketch=1;curveFitting=1;jiggle=2;" vertex="1" parent="1">
                    <mxGeometry x="334" y="347" width="62" height="38" as="geometry"/>
                </mxCell>
                <mxCell id="35" value="&lt;div style=&quot;font-size: 10px;&quot;&gt;&lt;b style=&quot;background-color: initial; font-size: 10px;&quot;&gt;Node / Connector&lt;/b&gt;&lt;/div&gt;&lt;div style=&quot;font-size: 10px;&quot;&gt;&lt;b style=&quot;background-color: initial; font-size: 10px;&quot;&gt;(points)&lt;/b&gt;&lt;/div&gt;" style="rounded=0;whiteSpace=wrap;html=1;align=center;verticalAlign=middle;fillColor=#E6E6E6;strokeColor=none;fontColor=#000000;fontSize=10;sketch=1;curveFitting=1;jiggle=2;" vertex="1" parent="1">
                    <mxGeometry x="401" y="348" width="57" height="39" as="geometry"/>
                </mxCell>
                <mxCell id="36" value="&lt;div style=&quot;font-size: 10px;&quot;&gt;&lt;font color=&quot;#ed157d&quot;&gt;&lt;b&gt;missing&lt;/b&gt;&lt;/font&gt;&lt;/div&gt;" style="rounded=0;whiteSpace=wrap;html=1;align=center;verticalAlign=middle;fillColor=#E6E6E6;strokeColor=none;fontColor=#000000;fontSize=10;glass=0;sketch=1;curveFitting=1;jiggle=2;" vertex="1" parent="1">
                    <mxGeometry x="19" y="194.5" width="56" height="23" as="geometry"/>
                </mxCell>
                <mxCell id="37" value="&lt;div style=&quot;font-size: 10px;&quot;&gt;&lt;b style=&quot;background-color: initial; font-size: 10px;&quot;&gt;&lt;font color=&quot;#ed157d&quot;&gt;exists&lt;/font&gt;&lt;/b&gt;&lt;/div&gt;" style="rounded=0;whiteSpace=wrap;html=1;align=center;verticalAlign=middle;fillColor=#E6E6E6;strokeColor=none;fontColor=#000000;fontSize=10;" vertex="1" parent="1">
                    <mxGeometry x="19" y="221" width="53.5" height="23" as="geometry"/>
                </mxCell>
                <mxCell id="38" value="&lt;div style=&quot;font-size: 10px;&quot;&gt;&lt;b&gt;Other&lt;/b&gt;&lt;/div&gt;" style="rounded=0;whiteSpace=wrap;html=1;align=center;verticalAlign=middle;fillColor=#E6E6E6;strokeColor=none;fontColor=#000000;fontSize=10;sketch=1;curveFitting=1;jiggle=2;" vertex="1" parent="1">
                    <mxGeometry x="463" y="348" width="42" height="39" as="geometry"/>
                </mxCell>
                <mxCell id="39" value="&lt;div style=&quot;font-size: 10px;&quot;&gt;&lt;font color=&quot;#ed157d&quot;&gt;&lt;b&gt;graph vertex and part can be combined into one, meaning assembly becomes a graph where a node is a Part&lt;/b&gt;&lt;/font&gt;&lt;/div&gt;" style="rounded=0;whiteSpace=wrap;html=1;align=left;verticalAlign=middle;fillColor=none;strokeColor=none;fontColor=#000000;fontSize=10;glass=0;sketch=1;curveFitting=1;jiggle=2;" vertex="1" parent="1">
                    <mxGeometry x="634" y="186" width="105" height="92" as="geometry"/>
                </mxCell>
                <mxCell id="40" style="edgeStyle=none;curved=1;html=1;fontColor=#ed157d;" edge="1" parent="1" source="41">
                    <mxGeometry relative="1" as="geometry">
                        <mxPoint x="314" y="294" as="targetPoint"/>
                    </mxGeometry>
                </mxCell>
                <mxCell id="41" value="&lt;div style=&quot;font-size: 10px;&quot;&gt;&lt;b style=&quot;background-color: initial; font-size: 10px;&quot;&gt;Data&lt;/b&gt;&lt;/div&gt;" style="rounded=0;whiteSpace=wrap;html=1;align=center;verticalAlign=middle;fillColor=#E6E6E6;strokeColor=none;fontColor=#000000;fontSize=10;" vertex="1" parent="1">
                    <mxGeometry x="241" y="283" width="45" height="23" as="geometry"/>
                </mxCell>
                <mxCell id="42" value="&lt;font&gt;&amp;nbsp;edge&amp;nbsp;&lt;br&gt;( 0-1 )&lt;br&gt;geo + attr&lt;br&gt;&lt;/font&gt;" style="edgeStyle=none;curved=1;html=1;exitX=1;exitY=0.5;exitDx=0;exitDy=0;entryX=0;entryY=0.5;entryDx=0;entryDy=0;fontColor=#FFFFFF;endArrow=none;endFill=0;fontSize=10;labelBorderColor=none;labelBackgroundColor=#FF0080;" edge="1" parent="1" source="46" target="45">
                    <mxGeometry x="0.0047" y="2" relative="1" as="geometry">
                        <mxPoint x="110.39429978888074" y="945.2" as="sourcePoint"/>
                        <mxPoint x="164.0999999999467" y="945.9299999999998" as="targetPoint"/>
                        <mxPoint as="offset"/>
                    </mxGeometry>
                </mxCell>
                <mxCell id="43" value="vertex&lt;br&gt;&lt;b&gt;Plate&lt;/b&gt; (2)" style="rhombus;whiteSpace=wrap;html=1;rounded=0;glass=0;sketch=0;strokeColor=none;fontSize=10;fontColor=#FFFFFF;fillColor=#1992d1;" vertex="1" parent="1">
                    <mxGeometry x="326.0999999999999" y="757.39" width="71" height="53" as="geometry"/>
                </mxCell>
                <mxCell id="44" value="vertex&lt;br&gt;&lt;b&gt;Node&amp;nbsp;&lt;/b&gt;(3)" style="ellipse;whiteSpace=wrap;html=1;rounded=0;glass=0;sketch=0;strokeColor=none;fontSize=10;fontColor=#FFFFFF;fillColor=#1992d1;" vertex="1" parent="1">
                    <mxGeometry x="456.0999999999999" y="764.39" width="47.82" height="47.22" as="geometry"/>
                </mxCell>
                <mxCell id="45" value="vertex&lt;br&gt;Beam (1)" style="whiteSpace=wrap;html=1;aspect=fixed;rounded=0;glass=0;sketch=0;strokeColor=none;fontSize=10;fontColor=#FFFFFF;fillColor=#1992d1;" vertex="1" parent="1">
                    <mxGeometry x="204.0999999999999" y="762.2" width="45" height="45" as="geometry"/>
                </mxCell>
                <mxCell id="46" value="vertex&lt;br&gt;&lt;b&gt;Block &lt;/b&gt;(0)" style="shape=parallelogram;perimeter=parallelogramPerimeter;whiteSpace=wrap;html=1;fixedSize=1;rounded=0;glass=0;sketch=0;strokeColor=none;fontSize=10;fontColor=#FFFFFF;fillColor=#1992d1;" vertex="1" parent="1">
                    <mxGeometry x="41.09999999999991" y="764.2" width="90" height="45" as="geometry"/>
                </mxCell>
                <mxCell id="47" value="vertex&lt;br style=&quot;border-color: var(--border-color);&quot;&gt;&lt;b&gt;Other&amp;nbsp;&lt;/b&gt;(4)" style="shape=tape;whiteSpace=wrap;html=1;rounded=0;glass=0;sketch=0;strokeColor=none;fontSize=10;fontColor=#FFFFFF;fillColor=#1992d1;size=0.13428571428571673;" vertex="1" parent="1">
                    <mxGeometry x="576.0999999999999" y="761" width="64.8" height="54" as="geometry"/>
                </mxCell>
                <mxCell id="48" value="&lt;span style=&quot;&quot;&gt;&amp;nbsp;edge&amp;nbsp;&lt;/span&gt;&lt;br style=&quot;border-color: var(--border-color);&quot;&gt;&lt;span style=&quot;&quot;&gt;( 1-2 )&lt;/span&gt;&lt;br style=&quot;border-color: var(--border-color);&quot;&gt;&lt;span style=&quot;&quot;&gt;geo + attr&lt;/span&gt;&lt;font&gt;&lt;br&gt;&lt;/font&gt;" style="edgeStyle=none;curved=1;html=1;exitX=1;exitY=0.5;exitDx=0;exitDy=0;entryX=0;entryY=0.5;entryDx=0;entryDy=0;fontColor=#FFFFFF;endArrow=none;endFill=0;fontSize=10;labelBorderColor=none;labelBackgroundColor=#FF0080;" edge="1" parent="1" source="45">
                    <mxGeometry y="2" relative="1" as="geometry">
                        <mxPoint x="291.5999999999999" y="839.2" as="sourcePoint"/>
                        <mxPoint x="326.10000000000036" y="784.8900000000001" as="targetPoint"/>
                        <mxPoint as="offset"/>
                    </mxGeometry>
                </mxCell>
                <mxCell id="49" value="&lt;span style=&quot;&quot;&gt;&amp;nbsp;edge&amp;nbsp;&lt;/span&gt;&lt;br style=&quot;border-color: var(--border-color);&quot;&gt;&lt;span style=&quot;&quot;&gt;( 0-1 )&lt;/span&gt;&lt;br style=&quot;border-color: var(--border-color);&quot;&gt;&lt;span style=&quot;&quot;&gt;geo + attr&lt;/span&gt;&lt;font&gt;&lt;br&gt;&lt;/font&gt;" style="edgeStyle=none;curved=1;html=1;exitX=1;exitY=0.5;exitDx=0;exitDy=0;entryX=0;entryY=0.5;entryDx=0;entryDy=0;fontColor=#FFFFFF;endArrow=none;endFill=0;fontSize=10;labelBorderColor=none;labelBackgroundColor=#FF0080;" edge="1" parent="1" target="44">
                    <mxGeometry y="2" relative="1" as="geometry">
                        <mxPoint x="397.0999999999999" y="784.8900000000001" as="sourcePoint"/>
                        <mxPoint x="338.0999999999999" y="825.8899999999999" as="targetPoint"/>
                        <mxPoint as="offset"/>
                    </mxGeometry>
                </mxCell>
                <mxCell id="50" value="&lt;span style=&quot;&quot;&gt;&amp;nbsp;edge&amp;nbsp;&lt;/span&gt;&lt;br style=&quot;border-color: var(--border-color);&quot;&gt;&lt;span style=&quot;&quot;&gt;( 0-1 )&lt;/span&gt;&lt;br style=&quot;border-color: var(--border-color);&quot;&gt;&lt;span style=&quot;&quot;&gt;geo + attr&lt;/span&gt;&lt;font&gt;&lt;br&gt;&lt;/font&gt;" style="edgeStyle=none;curved=1;html=1;entryX=0;entryY=0.5;entryDx=0;entryDy=0;fontColor=#FFFFFF;endArrow=none;endFill=0;fontSize=10;labelBorderColor=none;entryPerimeter=0;exitX=1;exitY=0.5;exitDx=0;exitDy=0;labelBackgroundColor=#FF0080;" edge="1" parent="1" source="44" target="47">
                    <mxGeometry y="2" relative="1" as="geometry">
                        <mxPoint x="497.0999999999999" y="783.3900000000001" as="sourcePoint"/>
                        <mxPoint x="454.10000000002265" y="794.0000000000002" as="targetPoint"/>
                        <mxPoint as="offset"/>
                    </mxGeometry>
                </mxCell>
                <mxCell id="51" value="&lt;div style=&quot;font-size: 10px;&quot;&gt;&lt;b&gt;fabrication&lt;/b&gt;&lt;/div&gt;&lt;div style=&quot;font-size: 10px;&quot;&gt;&lt;b&gt;geometry / tool-path&lt;/b&gt;&lt;/div&gt;" style="rounded=0;whiteSpace=wrap;html=1;align=center;verticalAlign=middle;fillColor=#E6E6E6;strokeColor=none;fontColor=#000000;fontSize=10;" vertex="1" parent="1">
                    <mxGeometry x="401" y="497" width="64.5" height="39" as="geometry"/>
                </mxCell>
                <mxCell id="52" style="edgeStyle=none;curved=1;html=1;exitX=1;exitY=1;exitDx=0;exitDy=0;entryX=0.5;entryY=0;entryDx=0;entryDy=0;" edge="1" parent="1" source="21" target="51">
                    <mxGeometry relative="1" as="geometry">
                        <mxPoint x="335" y="315.9999999999999" as="sourcePoint"/>
                        <mxPoint x="239.24999999999955" y="356.9999999999999" as="targetPoint"/>
                    </mxGeometry>
                </mxCell>
                <mxCell id="53" value="&lt;div style=&quot;font-size: 10px;&quot;&gt;&lt;b&gt;forces&lt;/b&gt;&lt;/div&gt;" style="rounded=0;whiteSpace=wrap;html=1;align=center;verticalAlign=middle;fillColor=#E6E6E6;strokeColor=none;fontColor=#000000;fontSize=10;" vertex="1" parent="1">
                    <mxGeometry x="333" y="497" width="64.5" height="39" as="geometry"/>
                </mxCell>
                <mxCell id="54" value="&lt;div style=&quot;font-size: 10px;&quot;&gt;&lt;b&gt;collision&lt;/b&gt;&lt;/div&gt;&lt;div style=&quot;font-size: 10px;&quot;&gt;&lt;b&gt;polygon or&lt;/b&gt;&lt;/div&gt;&lt;div style=&quot;font-size: 10px;&quot;&gt;&lt;b&gt;volume&lt;/b&gt;&lt;/div&gt;" style="rounded=0;whiteSpace=wrap;html=1;align=center;verticalAlign=middle;fillColor=#E6E6E6;strokeColor=none;fontColor=#000000;fontSize=10;" vertex="1" parent="1">
                    <mxGeometry x="264" y="497" width="64.5" height="39" as="geometry"/>
                </mxCell>
                <mxCell id="55" value="&lt;div style=&quot;font-size: 10px;&quot;&gt;&lt;b&gt;utilities&lt;/b&gt;&lt;/div&gt;" style="rounded=0;whiteSpace=wrap;html=1;align=center;verticalAlign=middle;fillColor=#000000;strokeColor=none;fontColor=#FFFFFF;fontSize=10;" vertex="1" parent="1">
                    <mxGeometry x="325" y="560" width="81" height="55" as="geometry"/>
                </mxCell>
                <mxCell id="56" style="edgeStyle=none;curved=1;html=1;entryX=0.5;entryY=0;entryDx=0;entryDy=0;exitX=0;exitY=1;exitDx=0;exitDy=0;" edge="1" parent="1" source="21" target="54">
                    <mxGeometry relative="1" as="geometry">
                        <mxPoint x="281" y="456" as="sourcePoint"/>
                        <mxPoint x="260.25" y="505" as="targetPoint"/>
                    </mxGeometry>
                </mxCell>
                <mxCell id="57" style="edgeStyle=none;curved=1;html=1;entryX=0.5;entryY=0;entryDx=0;entryDy=0;exitX=0.5;exitY=1;exitDx=0;exitDy=0;" edge="1" parent="1" source="21" target="53">
                    <mxGeometry relative="1" as="geometry">
                        <mxPoint x="415.5" y="473.9999999999998" as="sourcePoint"/>
                        <mxPoint x="418.24999999999955" y="506.9999999999999" as="targetPoint"/>
                    </mxGeometry>
                </mxCell>
                <mxCell id="58" style="edgeStyle=none;curved=1;html=1;entryX=0.5;entryY=0;entryDx=0;entryDy=0;exitX=0;exitY=1;exitDx=0;exitDy=0;" edge="1" parent="1" source="55" target="22">
                    <mxGeometry relative="1" as="geometry">
                        <mxPoint x="380" y="383" as="sourcePoint"/>
                        <mxPoint x="380.25" y="415.9999999999999" as="targetPoint"/>
                    </mxGeometry>
                </mxCell>
                <mxCell id="59" style="edgeStyle=none;curved=1;html=1;entryX=0;entryY=0;entryDx=0;entryDy=0;exitX=1;exitY=1;exitDx=0;exitDy=0;" edge="1" parent="1" source="55" target="24">
                    <mxGeometry relative="1" as="geometry">
                        <mxPoint x="335" y="625" as="sourcePoint"/>
                        <mxPoint x="273.5" y="649" as="targetPoint"/>
                    </mxGeometry>
                </mxCell>
                <mxCell id="60" style="edgeStyle=none;curved=1;html=1;entryX=0.5;entryY=0;entryDx=0;entryDy=0;exitX=0.5;exitY=1;exitDx=0;exitDy=0;" edge="1" parent="1" source="55" target="23">
                    <mxGeometry relative="1" as="geometry">
                        <mxPoint x="415.99999999999955" y="625" as="sourcePoint"/>
                        <mxPoint x="439" y="648.0000000000002" as="targetPoint"/>
                    </mxGeometry>
                </mxCell>
                <mxCell id="61" value="&lt;div style=&quot;font-size: 10px;&quot;&gt;&lt;font color=&quot;#ed157d&quot;&gt;&lt;b&gt;the attributes of edges are assigned to elements&lt;/b&gt;&lt;/font&gt;&lt;/div&gt;" style="rounded=0;whiteSpace=wrap;html=1;align=left;verticalAlign=middle;fillColor=none;strokeColor=none;fontColor=#000000;fontSize=10;glass=0;sketch=1;curveFitting=1;jiggle=2;" vertex="1" parent="1">
                    <mxGeometry x="632" y="413" width="105" height="36" as="geometry"/>
                </mxCell>
                <mxCell id="62" value="&lt;div style=&quot;font-size: 10px;&quot;&gt;&lt;b&gt;&lt;font color=&quot;#ffffff&quot;&gt;utilities&lt;/font&gt;&lt;/b&gt;&lt;/div&gt;" style="rounded=0;whiteSpace=wrap;html=1;align=center;verticalAlign=middle;fillColor=#000000;strokeColor=none;fontColor=default;fontSize=10;" vertex="1" parent="1">
                    <mxGeometry x="655" y="763" width="75" height="52" as="geometry"/>
                </mxCell>
                <mxCell id="63" value="&lt;font style=&quot;font-size: 10px;&quot; color=&quot;#ffffff&quot;&gt;&lt;b style=&quot;font-size: 10px;&quot;&gt;element.py&lt;br&gt;&lt;/b&gt;&lt;br style=&quot;font-size: 10px;&quot;&gt;&lt;span style=&quot;font-size: 10px;&quot;&gt;properties:&lt;/span&gt;&lt;br style=&quot;font-size: 10px;&quot;&gt;&lt;span style=&quot;font-size: 10px;&quot;&gt;&lt;span style=&quot;white-space: pre;&quot;&gt;&#9;&lt;/span&gt;index (tuple)&lt;/span&gt;&lt;br style=&quot;font-size: 10px;&quot;&gt;&lt;span style=&quot;font-size: 10px;&quot;&gt;&lt;span style=&quot;white-space: pre;&quot;&gt;&#9;&lt;/span&gt;frame (Frame)&lt;br&gt;&lt;span style=&quot;white-space: pre;&quot;&gt;&#9;&lt;/span&gt;fabrication (dict())&lt;br&gt;&lt;span style=&quot;white-space: pre;&quot;&gt;&#9;&lt;/span&gt;structure (dict())&lt;br&gt;&lt;/span&gt;&lt;span style=&quot;white-space: pre;&quot;&gt;&#9;&lt;/span&gt;attributes (dict[])&lt;br style=&quot;font-size: 10px;&quot;&gt;&lt;br style=&quot;font-size: 10px;&quot;&gt;&lt;/font&gt;" style="rounded=1;whiteSpace=wrap;html=1;glass=0;fontColor=#ed157d;fillColor=#3399FF;dashed=1;dashPattern=1 1;strokeColor=none;arcSize=0;align=left;verticalAlign=top;fontSize=10;" vertex="1" parent="1">
                    <mxGeometry x="224.15" y="950" width="160.7" height="120" as="geometry"/>
                </mxCell>
                <mxCell id="64" value="&lt;div style=&quot;font-size: 10px;&quot;&gt;&lt;b style=&quot;font-size: 10px;&quot;&gt;&lt;font style=&quot;font-size: 10px;&quot; color=&quot;#ffffff&quot;&gt;joint.py&lt;/font&gt;&lt;/b&gt;&lt;/div&gt;" style="rounded=0;whiteSpace=wrap;html=1;align=center;verticalAlign=middle;fillColor=#007FFF;strokeColor=none;fontColor=#000000;fontSize=10;" vertex="1" parent="1">
                    <mxGeometry x="391.1475336322871" y="950" width="157.847533632287" height="30" as="geometry"/>
                </mxCell>
                <mxCell id="65" value="&lt;font color=&quot;#ffffff&quot; style=&quot;font-size: 10px;&quot;&gt;&lt;b style=&quot;font-size: 10px;&quot;&gt;assembly.py&lt;/b&gt;&lt;/font&gt;" style="rounded=1;whiteSpace=wrap;html=1;glass=0;fontColor=#ed157d;fillColor=#000066;dashed=1;dashPattern=1 1;strokeColor=none;arcSize=0;fontSize=10;" vertex="1" parent="1">
                    <mxGeometry x="60" y="900" width="489" height="30" as="geometry"/>
                </mxCell>
                <mxCell id="98" value="&lt;font color=&quot;#ffffff&quot; style=&quot;font-size: 10px;&quot;&gt;&lt;b style=&quot;font-size: 10px;&quot;&gt;fabrication_unroll.py&lt;br style=&quot;font-size: 10px;&quot;&gt;&lt;/b&gt;&lt;/font&gt;" style="rounded=1;whiteSpace=wrap;html=1;glass=0;fontColor=#ed157d;fillColor=#FF0080;dashed=1;dashPattern=1 1;strokeColor=none;arcSize=0;fontSize=10;" vertex="1" parent="1">
                    <mxGeometry x="556" y="1071" width="157.847533632287" height="30" as="geometry"/>
                </mxCell>
                <mxCell id="99" value="&lt;b style=&quot;border-color: var(--border-color); color: rgb(0, 0, 0); font-size: 10px;&quot;&gt;&lt;font style=&quot;border-color: var(--border-color); font-size: 10px;&quot; color=&quot;#ffffff&quot;&gt;farbication&lt;/font&gt;&lt;/b&gt;&lt;font color=&quot;#ffffff&quot; style=&quot;font-size: 10px;&quot;&gt;&lt;b style=&quot;font-size: 10px;&quot;&gt;_nest.py&lt;br style=&quot;font-size: 10px;&quot;&gt;&lt;/b&gt;&lt;/font&gt;" style="rounded=1;whiteSpace=wrap;html=1;glass=0;fontColor=#ed157d;fillColor=#FF0080;dashed=1;dashPattern=1 1;strokeColor=none;arcSize=0;fontSize=10;" vertex="1" parent="1">
                    <mxGeometry x="556" y="1110.5" width="157.847533632287" height="30" as="geometry"/>
                </mxCell>
                <mxCell id="106" value="&lt;font color=&quot;#ffffff&quot; style=&quot;font-size: 10px;&quot;&gt;&lt;b style=&quot;font-size: 10px;&quot;&gt;element_beampy&lt;/b&gt;&lt;/font&gt;" style="rounded=1;whiteSpace=wrap;html=1;glass=0;fontColor=#ed157d;fillColor=#66B2FF;dashed=1;dashPattern=1 1;strokeColor=none;arcSize=0;fontSize=10;align=left;" vertex="1" parent="1">
                    <mxGeometry x="224.15" y="1110" width="160.7" height="30" as="geometry"/>
                </mxCell>
                <mxCell id="107" value="&lt;font color=&quot;#ffffff&quot; style=&quot;font-size: 10px;&quot;&gt;&lt;b style=&quot;font-size: 10px;&quot;&gt;element_plate.py&lt;/b&gt;&lt;/font&gt;" style="rounded=1;whiteSpace=wrap;html=1;glass=0;fontColor=#ed157d;fillColor=#66B2FF;dashed=1;dashPattern=1 1;strokeColor=none;arcSize=0;fontSize=10;align=left;" vertex="1" parent="1">
                    <mxGeometry x="224.15" y="1140" width="160.7" height="30" as="geometry"/>
                </mxCell>
                <mxCell id="108" value="&lt;font color=&quot;#ffffff&quot; style=&quot;font-size: 10px;&quot;&gt;&lt;b style=&quot;font-size: 10px;&quot;&gt;element_block.py&lt;/b&gt;&lt;/font&gt;" style="rounded=1;whiteSpace=wrap;html=1;glass=0;fontColor=#ed157d;fillColor=#66B2FF;dashed=1;dashPattern=1 1;strokeColor=none;arcSize=0;fontSize=10;align=left;" vertex="1" parent="1">
                    <mxGeometry x="224.15" y="1080" width="160.7" height="30" as="geometry"/>
                </mxCell>
                <mxCell id="109" value="&lt;font color=&quot;#ffffff&quot; style=&quot;font-size: 10px;&quot;&gt;&lt;b style=&quot;font-size: 10px;&quot;&gt;element_node.py&lt;/b&gt;&lt;/font&gt;" style="rounded=1;whiteSpace=wrap;html=1;glass=0;fontColor=#ed157d;fillColor=#66B2FF;dashed=1;dashPattern=1 1;strokeColor=none;arcSize=0;fontSize=10;align=left;" vertex="1" parent="1">
                    <mxGeometry x="224.15" y="1169.5" width="160.7" height="30" as="geometry"/>
                </mxCell>
                <mxCell id="112" value="&lt;div style=&quot;font-size: 10px;&quot;&gt;&lt;b style=&quot;font-size: 10px;&quot;&gt;&lt;font style=&quot;font-size: 10px;&quot; color=&quot;#ffffff&quot;&gt;joint_search.py&lt;/font&gt;&lt;/b&gt;&lt;/div&gt;" style="rounded=0;whiteSpace=wrap;html=1;align=center;verticalAlign=middle;fillColor=#007FFF;strokeColor=none;fontColor=#000000;fontSize=10;" vertex="1" parent="1">
                    <mxGeometry x="391.1475336322871" y="991" width="157.847533632287" height="30" as="geometry"/>
                </mxCell>
                <mxCell id="114" value="&lt;div style=&quot;font-size: 10px;&quot;&gt;&lt;b style=&quot;font-size: 10px;&quot;&gt;&lt;font style=&quot;font-size: 10px;&quot; color=&quot;#ffffff&quot;&gt;joint_library.py&lt;/font&gt;&lt;/b&gt;&lt;/div&gt;" style="rounded=0;whiteSpace=wrap;html=1;align=center;verticalAlign=middle;fillColor=#007FFF;strokeColor=none;fontColor=#000000;fontSize=10;" vertex="1" parent="1">
                    <mxGeometry x="391.1475336322871" y="1030" width="157.847533632287" height="30" as="geometry"/>
                </mxCell>
                <mxCell id="115" value="&lt;div style=&quot;font-size: 10px;&quot;&gt;&lt;b style=&quot;font-size: 10px;&quot;&gt;&lt;font style=&quot;font-size: 10px;&quot; color=&quot;#ffffff&quot;&gt;fabrication.py&lt;/font&gt;&lt;/b&gt;&lt;/div&gt;" style="rounded=0;whiteSpace=wrap;html=1;align=center;verticalAlign=middle;fillColor=#FF0080;strokeColor=none;fontColor=#000000;fontSize=10;" vertex="1" parent="1">
                    <mxGeometry x="556" y="950" width="157.847533632287" height="30" as="geometry"/>
                </mxCell>
                <mxCell id="116" value="&lt;b style=&quot;background-color: initial; font-size: 10px;&quot;&gt;&lt;font style=&quot;font-size: 10px;&quot; color=&quot;#ffffff&quot;&gt;fabrication_additive.py&lt;/font&gt;&lt;/b&gt;" style="rounded=0;whiteSpace=wrap;html=1;align=center;verticalAlign=middle;fillColor=#FF0080;strokeColor=none;fontColor=#000000;fontSize=10;" vertex="1" parent="1">
                    <mxGeometry x="556" y="991" width="157.847533632287" height="30" as="geometry"/>
                </mxCell>
                <mxCell id="117" value="&lt;b style=&quot;background-color: initial; font-size: 10px;&quot;&gt;&lt;font style=&quot;font-size: 10px;&quot; color=&quot;#ffffff&quot;&gt;fabrication_subtractive.py&lt;/font&gt;&lt;/b&gt;" style="rounded=0;whiteSpace=wrap;html=1;align=center;verticalAlign=middle;fillColor=#FF0080;strokeColor=none;fontColor=#000000;fontSize=10;" vertex="1" parent="1">
                    <mxGeometry x="556" y="1030" width="157.847533632287" height="30" as="geometry"/>
                </mxCell>
                <mxCell id="119" value="&lt;div style=&quot;font-size: 10px;&quot;&gt;&lt;b style=&quot;font-size: 10px;&quot;&gt;&lt;font style=&quot;font-size: 10px;&quot; color=&quot;#ffffff&quot;&gt;structure.py&lt;/font&gt;&lt;/b&gt;&lt;/div&gt;" style="rounded=0;whiteSpace=wrap;html=1;align=center;verticalAlign=middle;fillColor=#CC0066;strokeColor=none;fontColor=#000000;fontSize=10;" vertex="1" parent="1">
                    <mxGeometry x="726.9976083707027" y="950" width="157.847533632287" height="30" as="geometry"/>
                </mxCell>
                <mxCell id="121" value="&lt;div style=&quot;font-size: 10px;&quot;&gt;&lt;b style=&quot;font-size: 10px;&quot;&gt;&lt;font style=&quot;font-size: 10px;&quot; color=&quot;#ffffff&quot;&gt;structure_forces.py&lt;/font&gt;&lt;/b&gt;&lt;/div&gt;" style="rounded=0;whiteSpace=wrap;html=1;align=center;verticalAlign=middle;fillColor=#CC0066;strokeColor=none;fontColor=#000000;fontSize=10;" vertex="1" parent="1">
                    <mxGeometry x="726.9976083707027" y="1030" width="157.847533632287" height="30" as="geometry"/>
                </mxCell>
                <mxCell id="122" value="&lt;div style=&quot;font-size: 10px;&quot;&gt;&lt;b style=&quot;font-size: 10px;&quot;&gt;&lt;font style=&quot;font-size: 10px;&quot; color=&quot;#ffffff&quot;&gt;structure_geometry.py&lt;/font&gt;&lt;/b&gt;&lt;/div&gt;" style="rounded=0;whiteSpace=wrap;html=1;align=center;verticalAlign=middle;fillColor=#CC0066;strokeColor=none;fontColor=#000000;fontSize=10;" vertex="1" parent="1">
                    <mxGeometry x="726.9976083707027" y="991" width="157.847533632287" height="30" as="geometry"/>
                </mxCell>
                <mxCell id="127" value="&lt;div style=&quot;font-size: 10px;&quot;&gt;&lt;b style=&quot;font-size: 10px;&quot;&gt;&lt;font style=&quot;font-size: 10px;&quot; color=&quot;#ffffff&quot;&gt;assembly_properties&lt;/font&gt;&lt;/b&gt;&lt;/div&gt;" style="rounded=0;whiteSpace=wrap;html=1;align=center;verticalAlign=middle;fillColor=#660033;strokeColor=none;fontColor=#000000;fontSize=10;" vertex="1" parent="1">
                    <mxGeometry x="556" y="900" width="331" height="30" as="geometry"/>
                </mxCell>
                <mxCell id="131" value="&lt;font color=&quot;#ffffff&quot; style=&quot;font-size: 10px;&quot;&gt;&lt;b style=&quot;font-size: 10px;&quot;&gt;viewer_compas.py&lt;/b&gt;&lt;/font&gt;" style="rounded=1;whiteSpace=wrap;html=1;glass=0;fontColor=#ed157d;fillColor=#808080;dashed=1;dashPattern=1 1;strokeColor=none;arcSize=0;fontSize=10;" vertex="1" parent="1">
                    <mxGeometry x="897.4024663677133" y="991" width="157.847533632287" height="30" as="geometry"/>
                </mxCell>
                <mxCell id="132" value="&lt;font color=&quot;#ffffff&quot; style=&quot;font-size: 10px;&quot;&gt;&lt;b style=&quot;font-size: 10px;&quot;&gt;viewer_rhino.py&lt;/b&gt;&lt;/font&gt;" style="rounded=1;whiteSpace=wrap;html=1;glass=0;fontColor=#ed157d;fillColor=#808080;dashed=1;dashPattern=1 1;strokeColor=none;arcSize=0;fontSize=10;" vertex="1" parent="1">
                    <mxGeometry x="896.9024663677133" y="1031" width="157.847533632287" height="30" as="geometry"/>
                </mxCell>
                <mxCell id="133" value="&lt;font color=&quot;#ffffff&quot; style=&quot;font-size: 10px;&quot;&gt;&lt;b style=&quot;font-size: 10px;&quot;&gt;viewer_blender.py&lt;/b&gt;&lt;/font&gt;" style="rounded=1;whiteSpace=wrap;html=1;glass=0;fontColor=#ed157d;fillColor=#808080;dashed=1;dashPattern=1 1;strokeColor=none;arcSize=0;fontSize=10;" vertex="1" parent="1">
                    <mxGeometry x="896.9024663677133" y="1071" width="157.847533632287" height="30" as="geometry"/>
                </mxCell>
                <mxCell id="136" value="&lt;font color=&quot;#ffffff&quot; style=&quot;font-size: 10px;&quot;&gt;&lt;b style=&quot;font-size: 10px;&quot;&gt;viewers.py&lt;/b&gt;&lt;/font&gt;" style="rounded=1;whiteSpace=wrap;html=1;glass=0;fontColor=#ed157d;fillColor=#808080;dashed=1;dashPattern=1 1;strokeColor=none;arcSize=0;fontSize=10;" vertex="1" parent="1">
                    <mxGeometry x="896.2024663677132" y="951" width="157.847533632287" height="30" as="geometry"/>
                </mxCell>
                <mxCell id="137" value="&lt;font color=&quot;#ffffff&quot; style=&quot;font-size: 10px;&quot;&gt;&lt;b style=&quot;font-size: 10px;&quot;&gt;compas_assembly2&lt;/b&gt;&lt;/font&gt;" style="rounded=1;whiteSpace=wrap;html=1;glass=0;fontColor=#ed157d;fillColor=#000000;dashed=1;dashPattern=1 1;strokeColor=none;arcSize=0;fontSize=10;" vertex="1" parent="1">
                    <mxGeometry x="60" y="850" width="996" height="30" as="geometry"/>
                </mxCell>
                <mxCell id="139" value="&lt;font color=&quot;#ffffff&quot; style=&quot;font-size: 10px;&quot;&gt;&lt;b style=&quot;font-size: 10px;&quot;&gt;assembly_user_interface&lt;/b&gt;&lt;/font&gt;" style="rounded=1;whiteSpace=wrap;html=1;glass=0;fontColor=#ed157d;fillColor=#4D4D4D;dashed=1;dashPattern=1 1;strokeColor=none;arcSize=0;fontSize=10;" vertex="1" parent="1">
                    <mxGeometry x="897.4024663677131" y="900" width="157.847533632287" height="30" as="geometry"/>
                </mxCell>
                <mxCell id="141" value="&lt;font color=&quot;#ffffff&quot; style=&quot;font-size: 10px;&quot;&gt;&lt;b style=&quot;font-size: 10px;&quot;&gt;ui_rhino_command.py&lt;/b&gt;&lt;/font&gt;" style="rounded=1;whiteSpace=wrap;html=1;glass=0;fontColor=#ed157d;fillColor=#808080;dashed=1;dashPattern=1 1;strokeColor=none;arcSize=0;fontSize=10;" vertex="1" parent="1">
                    <mxGeometry x="897.4024663677133" y="1110.5" width="157.847533632287" height="30" as="geometry"/>
                </mxCell>
                <mxCell id="144" value="&lt;font color=&quot;#ffffff&quot; style=&quot;font-size: 10px;&quot;&gt;&lt;b style=&quot;font-size: 10px;&quot;&gt;ui_imgui.py&lt;/b&gt;&lt;/font&gt;" style="rounded=1;whiteSpace=wrap;html=1;glass=0;fontColor=#ed157d;fillColor=#808080;dashed=1;dashPattern=1 1;strokeColor=none;arcSize=0;fontSize=10;" vertex="1" parent="1">
                    <mxGeometry x="896.2024663677132" y="1151.5" width="157.847533632287" height="30" as="geometry"/>
                </mxCell>
                <mxCell id="146" value="&lt;font style=&quot;&quot;&gt;&lt;b style=&quot;font-size: 10px;&quot;&gt;group.py (ordered list)&lt;br&gt;&lt;/b&gt;&lt;br&gt;constructors:&lt;br&gt;&lt;div style=&quot;&quot;&gt;__init__&lt;/div&gt;&lt;div style=&quot;&quot;&gt;&lt;br&gt;&lt;/div&gt;&lt;div style=&quot;&quot;&gt;&lt;span style=&quot;border-color: var(--border-color);&quot;&gt;properties (operators):&lt;/span&gt;&lt;br&gt;&lt;/div&gt;&lt;div style=&quot;&quot;&gt;&lt;i&gt;__getitem__&lt;/i&gt;&lt;/div&gt;&lt;div style=&quot;&quot;&gt;&lt;i&gt;__setitem__&lt;/i&gt;&lt;/div&gt;&lt;div style=&quot;&quot;&gt;&lt;br&gt;&lt;/div&gt;&lt;div style=&quot;&quot;&gt;properties:&lt;/div&gt;&lt;div style=&quot;&quot;&gt;&lt;i&gt;__repr__()&lt;/i&gt;&lt;/div&gt;&lt;div style=&quot;&quot;&gt;&lt;i&gt;is_empty()&lt;/i&gt;&lt;/div&gt;&lt;div style=&quot;&quot;&gt;&lt;i&gt;size()&lt;/i&gt;&lt;/div&gt;&lt;div style=&quot;&quot;&gt;&lt;i&gt;index_of()&lt;/i&gt;&lt;/div&gt;&lt;div style=&quot;&quot;&gt;&lt;i&gt;get_by_key()&lt;/i&gt;&lt;/div&gt;&lt;div style=&quot;&quot;&gt;&lt;div style=&quot;border-color: var(--border-color);&quot;&gt;&lt;i style=&quot;border-color: var(--border-color);&quot;&gt;get_fabrication_data()&lt;/i&gt;&lt;/div&gt;&lt;div style=&quot;border-color: var(--border-color);&quot;&gt;&lt;i style=&quot;border-color: var(--border-color);&quot;&gt;get_structure_data()&lt;/i&gt;&lt;/div&gt;&lt;/div&gt;&lt;div style=&quot;&quot;&gt;&lt;br&gt;&lt;/div&gt;&lt;div style=&quot;&quot;&gt;&lt;div style=&quot;border-color: var(--border-color);&quot;&gt;iterators ():&lt;/div&gt;&lt;div style=&quot;border-color: var(--border-color);&quot;&gt;&lt;i style=&quot;border-color: var(--border-color);&quot;&gt;__iter__&lt;/i&gt;&lt;/div&gt;&lt;/div&gt;&lt;div style=&quot;&quot;&gt;&lt;br&gt;&lt;/div&gt;&lt;div style=&quot;&quot;&gt;collection methods:&lt;/div&gt;&lt;div style=&quot;&quot;&gt;&lt;div style=&quot;border-color: var(--border-color);&quot;&gt;&lt;span style=&quot;border-color: var(--border-color);&quot;&gt;&lt;i&gt;add()&lt;/i&gt;&lt;/span&gt;&lt;/div&gt;&lt;div style=&quot;border-color: var(--border-color);&quot;&gt;&lt;span style=&quot;border-color: var(--border-color);&quot;&gt;&lt;i&gt;merge()&lt;/i&gt;&lt;/span&gt;&lt;/div&gt;&lt;div style=&quot;border-color: var(--border-color);&quot;&gt;&lt;span style=&quot;border-color: var(--border-color);&quot;&gt;&lt;i&gt;add_range()&lt;/i&gt;&lt;/span&gt;&lt;/div&gt;&lt;div style=&quot;border-color: var(--border-color);&quot;&gt;&lt;span style=&quot;border-color: var(--border-color);&quot;&gt;&lt;i&gt;remove_by_element()&lt;/i&gt;&lt;/span&gt;&lt;/div&gt;&lt;div style=&quot;border-color: var(--border-color);&quot;&gt;&lt;span style=&quot;border-color: var(--border-color);&quot;&gt;&lt;i&gt;remove_by_index()&lt;/i&gt;&lt;/span&gt;&lt;/div&gt;&lt;div style=&quot;border-color: var(--border-color);&quot;&gt;&lt;span style=&quot;border-color: var(--border-color);&quot;&gt;&lt;i&gt;remove_by_key()&lt;/i&gt;&lt;/span&gt;&lt;/div&gt;&lt;div style=&quot;border-color: var(--border-color);&quot;&gt;&lt;span style=&quot;border-color: var(--border-color);&quot;&gt;&lt;div style=&quot;border-color: var(--border-color);&quot;&gt;&lt;i style=&quot;border-color: var(--border-color);&quot;&gt;regroup_after_keeping_first_indices()&lt;/i&gt;&lt;/div&gt;&lt;div style=&quot;border-color: var(--border-color);&quot;&gt;&lt;i style=&quot;border-color: var(--border-color);&quot;&gt;regroup_by_key()&lt;/i&gt;&lt;/div&gt;&lt;/span&gt;&lt;/div&gt;&lt;div style=&quot;border-color: var(--border-color);&quot;&gt;&lt;span style=&quot;border-color: var(--border-color);&quot;&gt;&lt;i&gt;&lt;br&gt;&lt;/i&gt;&lt;/span&gt;&lt;/div&gt;&lt;div style=&quot;border-color: var(--border-color);&quot;&gt;&lt;span style=&quot;border-color: var(--border-color);&quot;&gt;geometry methods:&lt;i&gt;&lt;br&gt;&lt;/i&gt;&lt;/span&gt;&lt;/div&gt;&lt;div style=&quot;border-color: var(--border-color);&quot;&gt;&lt;span style=&quot;border-color: var(--border-color);&quot;&gt;copy()&lt;br&gt;&lt;/span&gt;&lt;/div&gt;&lt;div style=&quot;border-color: var(--border-color);&quot;&gt;&lt;span style=&quot;border-color: var(--border-color);&quot;&gt;transform()&lt;/span&gt;&lt;/div&gt;&lt;div style=&quot;border-color: var(--border-color);&quot;&gt;&lt;span style=&quot;border-color: var(--border-color);&quot;&gt;transformed()&lt;/span&gt;&lt;/div&gt;&lt;div style=&quot;border-color: var(--border-color);&quot;&gt;&lt;span style=&quot;border-color: var(--border-color);&quot;&gt;orient()&lt;/span&gt;&lt;/div&gt;&lt;div style=&quot;border-color: var(--border-color);&quot;&gt;&lt;span style=&quot;border-color: var(--border-color);&quot;&gt;oriented()&lt;/span&gt;&lt;/div&gt;&lt;div style=&quot;border-color: var(--border-color);&quot;&gt;&lt;br&gt;&lt;/div&gt;&lt;div style=&quot;border-color: var(--border-color);&quot;&gt;&lt;span style=&quot;border-color: var(--border-color);&quot;&gt;&lt;br&gt;&lt;/span&gt;&lt;/div&gt;&lt;/div&gt;&lt;br&gt;&lt;br&gt;&lt;br&gt;&lt;/font&gt;" style="rounded=1;whiteSpace=wrap;html=1;glass=0;fontColor=#FFFFFF;fillColor=#003366;dashed=1;dashPattern=1 1;strokeColor=none;arcSize=0;fontSize=10;align=left;verticalAlign=top;" vertex="1" parent="1">
                    <mxGeometry x="59.99999999999994" y="950" width="154.85" height="460" as="geometry"/>
                </mxCell>
            </root>
        </mxGraphModel>
    </diagram>
</mxfile>